<?xml version="1.0" encoding="utf-8"?>
<!-- Generator: Adobe Illustrator 16.0.0, SVG Export Plug-In . SVG Version: 6.00 Build 0)  -->
<!DOCTYPE svg PUBLIC "-//W3C//DTD SVG 1.1//EN" "http://www.w3.org/Graphics/SVG/1.1/DTD/svg11.dtd">
<svg version="1.1" id="Layer_1" xmlns="http://www.w3.org/2000/svg" xmlns:xlink="http://www.w3.org/1999/xlink" x="0px" y="0px"
	 width="107.946px" height="63.617px" viewBox="0 0 107.946 63.617" style="enable-background:new 0 0 107.946 63.617;"
	 xml:space="preserve">
<style type="text/css">
<![CDATA[
	.st0{fill:#FFFFFF;}
]]>
</style>
<path class="st0" d="M102.57,16.302c-6.036-0.032-10.326-2.86-13.6-7.795c-0.636-0.958-2.354-1.399-3.657-1.673
	c-2.197-0.461-4.458-0.751-6.701-0.824c-2.076-0.067-4.73-0.513-6.135,0.537C68.929,9.203,65.9,8.826,62.069,7.236
	c-6.411-2.661-12.952-5.394-19.708-6.751C30.399-1.921,12.155,4.775,5.269,17.352c-6.64,12.128-6.695,24.601-1.897,37.224
	c0.887,2.336,2.829,4.415,4.676,6.209c3.25,3.157,10.471,3.682,14.44,1.537c4.22-2.28,2.85-6.217,2.966-9.665
	c0.185-5.493,3.333-8.891,8.772-9.07c1.481-0.049,2.999,0.058,4.454,0.333c6.836,1.294,11.761,5.184,14.996,11.288
	c2.219,4.19,5.245,7.067,10.296,7.711c10.833,1.381,14.544-2.533,10.608-12.59c-3.331-8.51,0.939-18.005,12.332-19.233
	c2.216-0.239,4.537-0.418,6.57-1.228c3.725-1.484,4.898-6.098,1.921-7.612c-5.536-2.813-8.752-9.611-16.363-9.079
	c-1.92,0.135-3.599-0.368-5.376,0.98c-4.628,3.51-9.63,3.752-14.791,1.113c-1.558-0.796-3.165-1.498-4.696-2.341
	C48.434,9.765,42.28,8.628,35.766,8.873C14.915,9.655,1.558,30.126,9.324,49.493c0.369,0.921,0.672,2.141,1.396,2.589
	c1.557,0.963,3.695,2.43,4.985,1.971c1.277-0.453,2.6-3.064,2.509-4.649c-0.258-4.488,1.38-7.953,4.882-10.265
	c2.751-1.815,5.908-3.425,9.101-4.093C42.5,32.892,53.92,39.492,59.301,50.218c0.558,1.113,0.885,2.706,1.795,3.2
	c1.7,0.925,3.914,1.903,5.597,1.508c1.116-0.264,2.292-2.855,2.345-4.441c0.077-2.3-0.912-4.619-1.313-6.954
	c-1.086-6.319,1.634-11.405,7.512-13.823c2.762-1.136,5.735-1.776,8.447-3.006c1.126-0.511,2.751-2.227,2.553-2.967
	c-1.106-4.132-6.099-6.663-8.868-3.87c-3.794,3.828-8.615,4.521-13.526,3.396c-5.426-1.242-10.883-2.7-16.009-4.83
	c-12.713-5.281-28.067,0.052-33.018,12.036c-0.601,1.455-0.042,3.386-0.021,5.098c1.454-0.654,3.229-0.973,4.312-2.013
	c12.275-11.793,30.965-9.649,40.053,4.683c0.666,1.05,1.441,2.032,2.426,3.408c1.054-4.655,1.938-8.558,2.82-12.459
	c-0.263-0.191-0.526-0.382-0.789-0.574c-1.329,1.833-2.658,3.667-3.892,5.367c-13.191-12.986-27.236-14.356-42.573-2.69
	c5.893-11.051,18.119-15.198,29.531-10.555c3.809,1.55,7.604,3.301,11.574,4.249c7,1.669,14.063,2.612,20.251-2.756
	c2.02-1.753,3.634-0.725,4.89,1.687c-3.56,1.385-6.86,2.493-10.008,3.934c-5.869,2.688-8.924,8.115-8.32,14.533
	c0.163,1.729,0.821,3.421,0.9,5.146c0.082,1.791-0.264,3.602-0.422,5.402c-1.341-1.247-2.788-2.402-3.983-3.775
	c-0.802-0.921-1.193-2.186-1.857-3.24c-5.813-9.222-14.327-13.691-25.084-13.708c-10.615-0.017-17.953,7.045-18.824,17.607
	c-0.054,0.657-0.52,1.281-0.794,1.92c-0.738-0.319-1.727-0.444-2.16-1.001c-0.747-0.962-1.282-2.146-1.675-3.315
	C4.345,27.117,20.011,9.299,40.587,11.639c6.466,0.735,12.661,4.191,18.879,6.655c4.614,1.828,8.952,1.814,13.31-0.603
	c5.765-3.197,10.82-2.391,15.605,2.336c1.05,1.038,2.267,1.903,3.369,2.89c0.937,0.838,1.817,1.736,2.724,2.607
	c-1.237,0.906-2.391,1.981-3.744,2.653c-0.825,0.409-1.96,0.2-2.956,0.261C74.45,29.256,67.154,41.318,72.417,51.385
	c0.511,0.979,0.74,2.123,0.987,3.216c0.932,4.121-0.418,5.672-4.733,6c-6.125,0.467-10.56-1.593-13.373-7.365
	c-3.363-6.896-9.324-10.563-16.754-11.902c-9.715-1.75-15.417,3.022-15.433,12.836c-0.01,5.82-2.228,7.637-8.103,7.003
	c-4.035-0.436-7.037-2.594-8.375-6.055c-1.815-4.697-3.519-9.669-3.936-14.635C0.447,13.748,22.199,0.618,41.287,2.941
	c7.11,0.865,13.984,4.232,20.779,6.928c4.11,1.631,7.588,1.793,11.224-0.946c0.978-0.737,2.715-0.892,4.012-0.697
	c3.09,0.465,6.123,1.299,8.391,1.806c3.185,2.479,5.732,5.15,8.84,6.691c3.181,1.577,6.91,2.046,11.401,3.274
	c-2.138,3.151-4.088,6.026-6.241,9.2c4.532-0.023,5.988-3.116,7.255-6.156C109.054,17.984,107.938,16.331,102.57,16.302z"/>
</svg>
