<?xml version="1.0" encoding="utf-8"?>
<!-- Generator: Adobe Illustrator 16.0.0, SVG Export Plug-In . SVG Version: 6.00 Build 0)  -->
<!DOCTYPE svg PUBLIC "-//W3C//DTD SVG 1.1//EN" "http://www.w3.org/Graphics/SVG/1.1/DTD/svg11.dtd">
<svg version="1.1" id="Layer_1" xmlns="http://www.w3.org/2000/svg" xmlns:xlink="http://www.w3.org/1999/xlink" x="0px" y="0px"
	 width="122px" height="51px" viewBox="0 0 122 51" enable-background="new 0 0 122 51" xml:space="preserve">
<g>
	<path fill="#9AA2AE" d="M5.838,46.73c-2.52,0-4.896-2.448-4.392-7.705c0.36-4.969,1.008-11.233,1.944-18.866
		c1.008-7.633,1.8-12.601,2.304-14.905c0.36-1.656,0.864-2.16,2.304-2.16c1.008,0,2.017,0.504,3.024,1.44
		c1.08,0.936,1.44,2.088,1.224,3.528c-1.8,9.217-3.24,17.498-4.393,24.914c1.368-4.248,3.097-7.92,5.041-10.945
		c2.016-3.096,4.249-4.608,6.697-4.536c4.249,0.072,6.336,2.592,6.336,4.896c0,0.937-0.576,3.528-1.656,7.705
		c-1.08,4.104-1.656,7.776-1.656,11.017c0,2.376,0.504,3.528,1.512,3.528c2.376,0,4.608-4.68,6.769-14.041
		c0.072-0.432,0.432-0.648,1.08-0.648c0.937,0,2.088,0.936,2.017,2.376c-0.648,3.672-1.656,6.841-3.457,10.585
		c-1.728,3.744-4.536,6.265-7.92,6.265c-4.969,0-7.489-3.528-7.489-10.513c0-4.68,1.296-10.801,3.888-18.505
		c-2.664,1.368-5.185,4.68-7.489,9.937C9.294,35.354,8.142,40.106,8.142,44.21C8.142,45.722,7.206,46.73,5.838,46.73z"/>
	<path fill="#9AA2AE" d="M55.303,29.953c1.152,0.36,1.656,1.08,1.44,2.232l-0.072,0.36l-0.647,2.232l-0.792,2.808
		c-0.36,1.152-1.584,4.249-2.521,5.688c-0.864,1.368-2.592,3.601-4.32,4.681c-1.729,0.936-4.248,1.872-7.057,1.872
		c-7.272,0-10.945-4.608-10.945-13.897c0-4.896,1.296-9.217,3.888-12.961c2.592-3.744,5.4-5.616,8.425-5.616
		c2.304,0,5.257,1.44,6.48,3.672c1.368,2.592,1.729,5.976,0,9.792c-1.656,3.096-6.192,4.825-11.089,4.176v1.152
		c0,5.688,1.872,9.361,5.328,9.361c2.521,0,4.537-1.152,5.904-3.384c1.368-2.304,2.881-6.192,4.393-11.737
		C53.864,29.809,54.368,29.665,55.303,29.953z M40.758,25.128c-1.224,2.232-2.088,4.825-2.448,7.849
		c2.521-0.288,4.465-1.44,5.833-3.384c1.439-1.944,2.16-3.96,2.16-5.977c0-1.224-0.36-1.8-1.152-1.8
		C43.495,21.816,41.982,22.896,40.758,25.128z"/>
	<path fill="#9AA2AE" d="M84.031,30.529c0.216-0.648,0.72-0.792,1.656-0.576c1.08,0.36,1.584,1.152,1.44,2.304l-0.072,0.216
		c-0.504,2.088-0.937,3.888-1.44,5.329c-0.432,1.44-1.08,3.168-2.016,5.184c-1.729,3.96-4.681,6.193-8.353,6.193
		c-3.313,0-5.473-2.16-6.409-6.48c-2.16,5.256-5.112,7.849-8.856,7.849c-5.112,0-7.417-5.473-6.841-16.346
		c0.36-6.121,1.44-12.889,3.385-20.45c1.8-7.201,3.815-11.017,7.057-11.017c2.664,0,5.328,1.944,5.328,6.625
		c0,3.672-0.864,7.344-2.593,11.017c-1.655,3.672-3.672,6.913-6.048,9.721c-0.576,4.464-0.864,7.705-0.864,9.792
		c0,4.537,0.432,6.409,2.16,6.409c2.952,0,4.393-4.393,6.769-13.897l0.288-1.296c0.504-6.048,1.656-12.529,3.384-19.441
		c1.801-7.201,3.816-11.017,7.057-11.017c2.665,0,5.329,1.944,5.329,6.625c0,4.104-0.937,8.208-2.736,12.457
		c-1.801,4.249-3.889,7.777-6.337,10.585c-0.432,3.96-0.647,6.697-0.647,8.208c0,4.537,0.432,6.409,2.16,6.409
		c1.656,0.36,3.168-2.088,4.104-4.176c0.359-0.648,0.72-1.656,1.08-3.024l1.008-3.312L84.031,30.529z M63.149,11.159
		c-0.647,3.457-1.368,8.137-2.232,14.113c3.601-6.409,5.4-11.665,5.4-15.769c0-2.088-0.432-3.097-1.224-3.097
		C64.229,6.407,63.941,7.415,63.149,11.159z M75.966,25.489c3.888-7.201,5.832-13.25,5.832-18.074c0-2.088-0.432-3.096-1.224-3.096
		c-0.864,0-1.152,1.008-1.944,4.752C77.55,14.76,76.686,20.232,75.966,25.489z"/>
	<path fill="#9AA2AE" d="M105.774,33.193c0,7.345-3.168,15.769-12.817,15.769c-5.688,0-9.649-4.392-9.433-13.033
		c0.071-5.113,1.439-9.361,4.032-12.889c2.664-3.528,5.832-5.329,9.505-5.329c2.952,0,5.113,1.152,6.552,3.528
		c1.008,1.656,1.439,4.176,1.225,7.633C105.487,30.097,105.774,31.537,105.774,33.193z M98.286,29.089
		c-0.647-0.648-0.576-1.728,0.36-2.232c1.08-0.576,2.16-0.72,3.24-0.432c-0.287-3.24-1.225-4.896-2.88-4.896
		c-2.304,0-4.176,1.44-5.688,4.392c-1.439,2.88-2.16,6.337-2.16,10.441c0,5.977,1.368,8.929,4.177,8.929
		c3.672,0,5.904-2.592,6.193-6.841C101.813,35.209,100.733,32.113,98.286,29.089z"/>
	<path fill="#9AA2AE" d="M117.651,38.45c2.521,0,3.816,1.512,3.816,4.464c0,3.672-2.16,6.048-5.111,6.048
		c-2.232,0-3.961-1.728-3.961-4.608C112.396,40.97,114.772,38.45,117.651,38.45z"/>
</g>
</svg>
