<?xml version="1.0" encoding="utf-8"?>
<!-- Generator: Adobe Illustrator 16.0.0, SVG Export Plug-In . SVG Version: 6.00 Build 0)  -->
<!DOCTYPE svg PUBLIC "-//W3C//DTD SVG 1.1//EN" "http://www.w3.org/Graphics/SVG/1.1/DTD/svg11.dtd">
<svg version="1.1" id="Layer_1" xmlns="http://www.w3.org/2000/svg" xmlns:xlink="http://www.w3.org/1999/xlink" x="0px" y="0px"
	 width="420px" height="220px" viewBox="0 0 420 220" enable-background="new 0 0 420 220" xml:space="preserve">
<path fill="none" stroke="#9AA2AE" stroke-width="14" stroke-linecap="round" stroke-linejoin="round" stroke-miterlimit="2" d="
	M14.5,208c0,0,16-127,15-153s-21-140-7,135c0,0,8-85.515,31-82.757S71.5,146,71.5,165s-1,39,16,40s41-23,55-45s12-52-9-46
	s-33,23-29,41s23,53,58,43s44-61,44-61s15-68,0-87s-22,30-22,30s-7,90,22,117s46-2,46-2s37-70,31-115s-32-28-37-13
	s-7.186,76.365,1,99s33.942,42.334,33.942,42.334S293.5,215,304.5,192c4.242-8.871,9.229-20.866,14.442-32.256
	C327.247,141.604,336.129,125,343.5,125c12,0,41,11,38,37s-11,42.007-26,47s-53-25-34-67s43-13,55-17s17-4,26-11"/>
<path fill="none" stroke="#9AA2AE" stroke-width="14" stroke-linecap="round" stroke-linejoin="round" stroke-miterlimit="2" d="
	M14.5,208c0,0,14-176.983,15-150.983c2.167,56.334-16.902-59.511-7,135c0,0,8-85.515,31-82.757s18,38.757,18,57.757s-1,39,16,40
	s41-23,55-45s12-52-9-46s-33,23-29,41s23,53,58,43s44-61,44-61s15-68,0-87s-22,30-22,30s-7,90,22,117s46-2,46-2s37-70,31-115
	s-32-28-37-13s-7.186,76.365,1,99s27,37.983,27,37.983s19,11.017,30-11.983c4.242-8.871,9.229-20.866,14.442-32.256
	c8.305-18.141,17.187-34.744,24.558-34.744c12,0,41,11,38,37s-11,39.99-26,44.983s-53-22.983-34-64.983s43-13,55-17s17-4,26-11"/>
</svg>
