<?xml version="1.0" encoding="utf-8"?>
<!-- Generator: Adobe Illustrator 16.0.0, SVG Export Plug-In . SVG Version: 6.00 Build 0)  -->
<!DOCTYPE svg PUBLIC "-//W3C//DTD SVG 1.1//EN" "http://www.w3.org/Graphics/SVG/1.1/DTD/svg11.dtd">
<svg version="1.1" id="Layer_1" xmlns="http://www.w3.org/2000/svg" xmlns:xlink="http://www.w3.org/1999/xlink" x="0px" y="0px"
	 width="300px" height="474.5px" viewBox="0 0 300 474.5" style="enable-background:new 0 0 300 474.5;" xml:space="preserve">
<style type="text/css">
<![CDATA[
	.st0{fill:#EAB91F;}
	.st1{fill:none;}
]]>
</style>
<g>
	<path class="st1" d="M68,75.019h164c3.658,0,7.034-1.5,9.559-3.893c2.713-2.571,4.441-6.176,4.441-10.107V48
		c0-7.589-6.411-14-14-14H68c-7.589,0-14,6.411-14,14v13.019c0,3.931,1.729,7.536,4.441,10.107
		C60.966,73.519,64.342,75.019,68,75.019z"/>
	<path class="st1" d="M266,252.061v-47.042v-34c0-8.596-1.408-17.003-4.081-25c-4.08-12.211-11.138-23.458-20.854-32.892
		c-1.554-1.508-3.169-2.931-4.815-4.309c-15.682-13.127-35.409-20.31-56.25-20.31h-60c-20.841,0-40.568,7.182-56.25,20.31
		c-1.646,1.378-3.262,2.801-4.815,4.309c-9.716,9.434-16.773,20.681-20.854,32.892c-2.673,7.997-4.081,16.404-4.081,25v34v47.042
		v14.894v42.083h232v-42.083V252.061z"/>
	<path class="st0" d="M268.291,92.328C275.572,83.906,280,72.958,280,61.019V48c0-26.4-21.6-48-48-48H68C41.6,0,20,21.6,20,48
		v13.019c0,11.939,4.428,22.888,11.709,31.31C12.047,113.098,0,140.757,0,171.019v138.019v49.499v42.437V419.5v0.519h0.014
		C0.296,450.032,24.924,474.5,55,474.5h190c30.076,0,54.704-24.469,54.986-54.481H300V419.5v-18.527v-42.437v-49.499V171.019
		C300,140.757,287.953,113.098,268.291,92.328z M54,48c0-7.589,6.411-14,14-14h164c7.589,0,14,6.411,14,14v13.019
		c0,3.931-1.729,7.536-4.441,10.107c-2.524,2.394-5.9,3.893-9.559,3.893H68c-3.658,0-7.034-1.5-9.559-3.893
		C55.729,68.554,54,64.949,54,61.019V48z M34,309.038v-42.083v-14.894v-47.042v-34c0-8.596,1.408-17.003,4.081-25
		c4.08-12.211,11.138-23.458,20.854-32.892c1.554-1.508,3.169-2.931,4.815-4.309c15.682-13.127,35.409-20.31,56.25-20.31h60
		c20.841,0,40.568,7.182,56.25,20.31c1.646,1.378,3.262,2.801,4.815,4.309c9.716,9.434,16.773,20.681,20.854,32.892
		c2.673,7.997,4.081,16.404,4.081,25v34v47.042v14.894v42.083H34z"/>
</g>
</svg>
