<?xml version="1.0" encoding="utf-8"?>
<!-- Generator: Adobe Illustrator 16.0.0, SVG Export Plug-In . SVG Version: 6.00 Build 0)  -->
<!DOCTYPE svg PUBLIC "-//W3C//DTD SVG 1.1//EN" "http://www.w3.org/Graphics/SVG/1.1/DTD/svg11.dtd">
<svg version="1.1" id="Layer_1" xmlns="http://www.w3.org/2000/svg" xmlns:xlink="http://www.w3.org/1999/xlink" x="0px" y="0px"
	 width="571px" height="688px" viewBox="31.5 -171.5 571 688" style="enable-background:new 31.5 -171.5 571 688;"
	 xml:space="preserve">
<style type="text/css">
<![CDATA[
	.st0{fill:#ECBA1D;}
	.st1{fill:none;stroke:#ECBA1D;stroke-width:30;stroke-linecap:round;stroke-linejoin:round;stroke-miterlimit:10;}
	.st2{fill:none;stroke:#ECBA1D;stroke-width:51;stroke-linecap:round;stroke-linejoin:round;stroke-miterlimit:10;}
]]>
</style>
<path class="st0" d="M256,87.502c67.735,59.185,139.455,130.615,139.455,197.963c0,79.594-61.759,142.86-139.455,142.86
	s-139.455-63.267-139.455-142.86C116.545,218.117,188.265,146.687,256,87.502 M256-12.5c-3.984,0-9.961,2.041-13.945,4.082
	C152.405,71.175,36.856,165.054,36.856,287.505C36.856,411.998,134.475,512,256,512s219.144-100.002,219.144-224.495
	c0-120.409-117.54-216.33-205.198-295.923C265.961-12.5,259.984-12.5,256-12.5z"/>
<path class="st2" d="M172.812,275.699c0,0-0.596,70.629,55.478,91.221"/>
<path class="st0" d="M487.072-113.374C520.939-83.781,556.8-48.066,556.8-14.393c0,39.797-30.88,71.43-69.728,71.43
	s-69.728-31.633-69.728-71.43C417.345-48.066,453.205-83.781,487.072-113.374 M487.072-163.375c-1.992,0-4.98,1.021-6.973,2.041
	c-44.825,39.796-102.6,86.736-102.6,147.961c0,62.247,48.81,112.248,109.572,112.248S596.645,48.874,596.645-13.373
	c0-60.205-58.771-108.165-102.6-147.961C492.053-163.375,489.064-163.375,487.072-163.375z"/>
<path class="st1" d="M445.479-19.275c0,0-0.299,35.314,27.738,45.61"/>
</svg>
