
<svg version="1.1" id="Layer_1" xmlns="http://www.w3.org/2000/svg" xmlns:xlink="http://www.w3.org/1999/xlink" x="0px" y="0px"
	 viewBox="0 0 511.984 511.984" style="enable-background:new 0 0 511.984 511.984;" xml:space="preserve">

	<defs>
    	<style type="text/css"><![CDATA[
      		.svg-honey {
        		fill: #EEBA0B;
      		 }
    	]]></style>
  	</defs>
<g>
	<g>
		<path class="svg-honey" d="M498.051,367.387l-0.627-0.932l-67.337-92.938c-1.559-2.137-3.6-3.809-5.898-4.966c1.848-1.382,3.728-2.732,5.4-4.403
			c8.743-8.742,13.242-20.137,13.837-31.579c11.458-0.579,22.869-5.127,31.611-13.885c9.385-9.369,14.142-21.808,14.126-34.086
			c0.016-8.26-2.314-16.489-6.573-23.913c5.512-2.362,10.703-5.705,15.171-10.173c9.385-9.369,14.142-21.808,14.126-34.086
			c0.016-12.294-4.741-24.717-14.126-34.102l-68.172-68.188c-9.353-9.353-21.792-14.11-34.07-14.094
			c-12.278-0.016-24.717,4.741-34.086,14.126c-4.436,4.419-7.875,9.594-10.253,15.139c-7.393-4.227-15.621-6.541-23.849-6.541
			c-12.278-0.016-24.717,4.741-34.086,14.126c-8.759,8.743-13.307,20.153-13.885,31.611c-11.442,0.595-22.837,5.11-31.563,13.837
			c-9.385,9.385-14.094,21.824-14.078,34.086c-0.016,8.244,2.298,16.505,6.557,23.929c-5.528,2.346-10.719,5.689-15.203,10.173
			c-9.385,9.385-14.094,21.824-14.078,34.086c-0.016,12.278,4.693,24.701,14.078,34.086L14.078,429.693
			C4.693,439.063-0.016,451.501,0,463.78c-0.016,12.278,4.693,24.717,14.078,34.086c9.385,9.385,21.824,14.094,34.102,14.078
			c12.262,0.016,24.701-4.693,34.086-14.078l210.978-210.978c9.385,9.385,21.824,14.094,34.086,14.078
			c12.278,0.016,24.717-4.693,34.086-14.078c4.484-4.484,7.826-9.675,10.173-15.203c7.425,4.243,15.669,6.557,23.929,6.557
			c1.848,0,3.68-0.321,5.528-0.53l-63.673,87.795l-0.643,0.948c-9.546,15.348-14.287,32.833-14.287,50.27
			c0,17.421,4.741,34.874,14.287,50.173c17.34,27.819,47.65,44.58,80.451,44.548c17.694,0,35.067-4.982,50.125-14.399
			c28.911-18.112,44.693-49.257,44.677-80.756C511.984,399.512,507.484,382.493,498.051,367.387z M384.157,36.891
			c3.182-3.166,7.2-4.693,11.362-4.709c4.162,0.016,8.18,1.543,11.362,4.709l68.188,68.188c3.166,3.182,4.693,7.2,4.709,11.362
			c-0.016,4.162-1.543,8.18-4.709,11.362c-3.182,3.166-7.2,4.693-11.362,4.709c-4.162-0.016-8.18-1.543-11.362-4.709l-68.188-68.188
			c-3.134-3.15-4.677-7.248-4.709-11.876C379.448,44.042,380.943,40.105,384.157,36.891z M315.968,59.615
			c3.182-3.166,7.2-4.693,11.362-4.709c4.162,0.016,8.18,1.543,11.362,4.709l22.724,22.724l34.086,34.086l56.826,56.826
			c3.166,3.166,4.693,7.184,4.709,11.362c-0.016,4.162-1.543,8.18-4.709,11.362c-3.182,3.166-7.2,4.693-11.362,4.709
			c-4.162-0.016-8.18-1.543-11.362-4.709L315.968,82.339c-3.166-3.182-4.693-7.2-4.709-11.362
			C311.276,66.814,312.802,62.797,315.968,59.615z M59.542,475.142c-3.118,3.118-7.151,4.644-11.362,4.661
			c-4.211-0.016-8.244-1.559-11.362-4.661c-3.118-3.118-4.661-7.151-4.677-11.362c0.016-4.211,1.559-8.244,4.661-11.362
			L247.78,241.44l22.724,22.724L59.542,475.142z M338.692,264.164c-3.118,3.118-7.151,4.661-11.362,4.677
			c-4.211-0.016-8.244-1.559-11.362-4.677l-68.188-68.188c-3.118-3.118-4.661-7.168-4.661-11.362
			c0.016-4.194,1.559-8.244,4.661-11.362c3.118-3.118,7.151-4.644,11.362-4.677c4.211,0.016,8.244,1.559,11.362,4.677l68.188,68.188
			c3.118,3.118,4.644,7.151,4.661,11.362C343.337,257.013,341.794,261.046,338.692,264.164z M395.503,246.1
			c-4.211-0.016-8.244-1.559-11.362-4.661l-22.724-22.724L327.33,184.63l-56.81-56.826c-3.118-3.118-4.661-7.151-4.677-11.362
			c0.016-4.211,1.559-8.244,4.677-11.362c3.118-3.118,7.152-4.644,11.362-4.661c4.211,0.016,8.244,1.559,11.362,4.661
			l113.637,113.637c3.118,3.118,4.644,7.151,4.661,11.362c-0.016,4.211-1.559,8.244-4.677,11.362
			C403.747,244.558,399.713,246.084,395.503,246.1z M450.272,469.79c-9.98,6.235-21.406,9.514-33.09,9.514
			c-21.937-0.048-41.575-10.928-53.194-29.442c-6.236-9.98-9.401-21.519-9.401-33.138c0-11.523,3.134-23.029,9.305-33.026
			l53.194-73.363l53.837,74.311c6.027,9.755,8.919,20.651,8.935,31.643C479.842,437.15,469.38,457.865,450.272,469.79z"/>
	</g>
</g>
<g>
</g>
<g>
</g>
<g>
</g>
<g>
</g>
<g>
</g>
<g>
</g>
<g>
</g>
<g>
</g>
<g>
</g>
<g>
</g>
<g>
</g>
<g>
</g>
<g>
</g>
<g>
</g>
<g>
</g>
</svg>
