<?xml version="1.0" encoding="utf-8"?>
<!-- Generator: Adobe Illustrator 16.0.0, SVG Export Plug-In . SVG Version: 6.00 Build 0)  -->
<!DOCTYPE svg PUBLIC "-//W3C//DTD SVG 1.1//EN" "http://www.w3.org/Graphics/SVG/1.1/DTD/svg11.dtd">
<svg version="1.1" id="Layer_1" xmlns="http://www.w3.org/2000/svg" xmlns:xlink="http://www.w3.org/1999/xlink" x="0px" y="0px"
	 width="448px" height="534px" viewBox="31.5 -17.5 448 534" style="enable-background:new 31.5 -17.5 448 534;"
	 xml:space="preserve">
<style type="text/css">
<![CDATA[
	.st0{fill:#ECBA1D;}
	.st1{fill:none;stroke:#ECBA1D;stroke-width:51;stroke-linecap:round;stroke-linejoin:round;stroke-miterlimit:10;}
]]>
</style>
<path class="st0" d="M256,87.502c67.735,59.185,139.455,130.615,139.455,197.963c0,79.594-61.759,142.86-139.455,142.86
	s-139.455-63.267-139.455-142.86C116.545,218.117,188.265,146.687,256,87.502 M256-12.5c-3.984,0-9.961,2.041-13.945,4.082
	C152.405,71.175,36.856,165.054,36.856,287.505C36.856,411.998,134.475,512,256,512s219.144-100.002,219.144-224.495
	c0-120.409-117.54-216.33-205.198-295.923C265.961-12.5,259.984-12.5,256-12.5z"/>
<path class="st1" d="M172.812,275.699c0,0-0.596,70.629,55.478,91.221"/>
</svg>
