<?xml version="1.0" encoding="utf-8"?>
<!-- Generator: Adobe Illustrator 16.0.0, SVG Export Plug-In . SVG Version: 6.00 Build 0)  -->
<!DOCTYPE svg PUBLIC "-//W3C//DTD SVG 1.1//EN" "http://www.w3.org/Graphics/SVG/1.1/DTD/svg11.dtd" [
	<!ENTITY st0 "display:none;fill:#9AA2AE;">
	<!ENTITY st1 "fill:#9AA2AE;">
]>
<svg version="1.1" id="Layer_1" xmlns="http://www.w3.org/2000/svg" xmlns:xlink="http://www.w3.org/1999/xlink" x="0px" y="0px"
	 width="132px" height="132px" viewBox="0 0 132 132" style="enable-background:new 0 0 132 132;" xml:space="preserve">
<path style="&st0;" d="M132,126c0,3.313-2.687,6-6,6H6c-3.313,0-6-2.687-6-6V6c0-3.313,2.687-6,6-6h120c3.313,0,6,2.687,6,6V126z"/>
<path style="&st1;" d="M126,0H6C2.687,0,0,2.687,0,6v120c0,3.313,2.687,6,6,6h120c3.313,0,6-2.687,6-6V6C132,2.687,129.313,0,126,0z
	 M77,87H66.429L46,53.134V87H35V36h10.897L66,69.376V36h11V87z M96,87H86V49h10V87z M95.274,42.728
	c-1.043,0.984-2.42,1.477-4.131,1.477s-3.088-0.492-4.131-1.477s-1.564-2.25-1.564-3.797c0-1.523,0.51-2.777,1.529-3.762
	s2.408-1.477,4.166-1.477c1.734,0,3.117,0.492,4.148,1.477s1.547,2.238,1.547,3.762C96.839,40.478,96.317,41.743,95.274,42.728z"/>
</svg>
