<?xml version="1.0" encoding="utf-8"?>
<!-- Generator: Adobe Illustrator 16.0.0, SVG Export Plug-In . SVG Version: 6.00 Build 0)  -->
<!DOCTYPE svg PUBLIC "-//W3C//DTD SVG 1.1//EN" "http://www.w3.org/Graphics/SVG/1.1/DTD/svg11.dtd">
<svg version="1.1" id="Layer_1" xmlns="http://www.w3.org/2000/svg" xmlns:xlink="http://www.w3.org/1999/xlink" x="0px" y="0px"
	 width="148px" height="148px" viewBox="0 0 148 148" enable-background="new 0 0 148 148" xml:space="preserve">
<path display="none" fill="#9AA2AE" d="M140,134c0,3.313-2.687,6-6,6H14c-3.313,0-6-2.687-6-6V14c0-3.313,2.687-6,6-6h120
	c3.313,0,6,2.687,6,6V134z"/>
<path fill="#9AA2AE" d="M129,24.029c0-2.778-2.252-5.029-5.029-5.029H23.029C20.251,19,18,21.251,18,24.029v100.941
	c0,2.777,2.251,5.029,5.029,5.029h100.941c2.777,0,5.029-2.252,5.029-5.029V24.029z M83,92h-8.818L57,63.393V92H47V50h9.972
	L73,77.008V50h10V92z M98,92h-8V60h8V92z M98.36,54.67c-0.874,0.825-2.028,1.238-3.462,1.238c-1.435,0-2.589-0.413-3.463-1.238
	s-1.312-1.886-1.312-3.183c0-1.277,0.428-2.328,1.282-3.153c0.854-0.825,2.019-1.237,3.492-1.237c1.453,0,2.612,0.413,3.477,1.237
	c0.864,0.825,1.297,1.876,1.297,3.153C99.672,52.784,99.234,53.845,98.36,54.67z"/>
</svg>
