<?xml version="1.0" encoding="utf-8"?>
<!-- Generator: Adobe Illustrator 16.0.0, SVG Export Plug-In . SVG Version: 6.00 Build 0)  -->
<!DOCTYPE svg PUBLIC "-//W3C//DTD SVG 1.1//EN" "http://www.w3.org/Graphics/SVG/1.1/DTD/svg11.dtd">
<svg version="1.1" id="Layer_1" xmlns="http://www.w3.org/2000/svg" xmlns:xlink="http://www.w3.org/1999/xlink" x="0px" y="0px"
	 width="72px" height="80px" viewBox="0 0 72 80" enable-background="new 0 0 72 80" xml:space="preserve">
<path fill="#2C3942" d="M66,0H6C2.687,0,0,2.687,0,6v64c0,3.313,2.687,6,6,6c26.016,0.002,30,4.044,30,4.044S39.984,76.002,66,76
	c3.313,0,6-2.687,6-6V6C72,2.687,69.313,0,66,0z"/>
<g>
	<path fill="#FFFFFF" d="M23.483,31.725H22.62v12.193h-9.985V9.931H25.26c7.873,0,11.474,4.224,11.474,11.041
		c0,4.608-2.209,7.488-4.081,8.449l5.425,14.497H27.084L23.483,31.725z M22.62,18.619v5.953h0.864c1.2,0,2.929-0.576,2.929-2.976
		c0-2.544-1.632-2.977-2.641-2.977H22.62z"/>
	<path fill="#FFFFFF" d="M37.931,41.085l4.992-7.921c1.439,1.2,3.313,2.064,5.04,2.064c1.057,0,1.92-0.576,1.92-1.584
		c0-1.2-1.008-1.92-3.264-2.976c-3.793-1.776-7.249-4.32-7.249-10.129c0-8.353,6.48-11.473,11.81-11.473
		c4.08,0,7.393,1.392,9.553,3.457l-5.137,7.825c-1.104-1.104-2.688-1.92-4.032-1.92c-1.008,0-2.017,0.48-2.017,1.728
		c0,1.008,0.673,1.44,3.169,2.64c2.784,1.344,7.536,4.128,7.536,10.369c0,8.208-5.904,11.617-11.856,11.617
		C43.787,44.781,40.042,42.909,37.931,41.085z"/>
</g>
<g>
	<path fill="#FFFFFF" d="M12.978,65.015V46.869h5.243v6.24h0.104c0.26-0.696,1.298-1.368,2.518-1.368
		c3.089,0,4.724,2.904,4.724,6.577c0,3.84-1.713,7.08-4.724,7.08c-1.531,0-2.336-0.792-2.725-1.656h-0.052v1.272H12.978z
		 M17.935,58.558c0,1.393,0.389,2.593,1.22,2.593c0.908,0,1.272-1.2,1.272-2.593c0-1.416-0.364-2.592-1.272-2.592
		C18.324,55.966,17.935,57.142,17.935,58.558z"/>
	<path fill="#FFFFFF" d="M38.389,62.206c-1.064,2.089-2.829,3.289-5.477,3.289c-3.348,0-6.204-2.305-6.204-6.889
		c0-4.32,2.544-6.961,6.048-6.961c4.101,0,5.762,2.904,5.762,7.032v1.104H31.77c0.026,0.816,0.649,1.488,1.324,1.488
		c0.752,0,1.194-0.528,1.427-1.152L38.389,62.206z M33.794,56.902c0-0.912-0.259-1.585-0.96-1.585c-0.649,0-1.09,0.721-1.116,1.585
		H33.794z"/>
	<path fill="#FFFFFF" d="M45.631,56.974V56.71c0-0.6-0.415-0.937-1.142-0.937c-0.961,0-1.791,0.456-2.362,0.984l-2.414-3.024
		c1.298-1.344,3.375-2.088,5.243-2.088c4.387,0,5.451,2.616,5.451,6.625v6.744h-4.36v-1.176h-0.053
		c-0.285,0.792-1.245,1.56-2.803,1.56c-1.635,0-3.842-0.84-3.842-3.984c0-3.48,3.063-4.44,5.84-4.44H45.631z M45.319,59.902
		c-1.063,0-1.583,0.384-1.583,1.08c0,0.528,0.338,0.84,0.805,0.84c0.805,0,1.246-0.6,1.246-1.416v-0.504H45.319z"/>
	<path fill="#FFFFFF" d="M52.77,52.126h5.062v1.872h0.077c0.493-1.44,1.35-2.257,2.699-2.257c0.416,0,0.546,0.024,0.883,0.12
		l-0.39,4.849c-0.311-0.096-0.622-0.145-1.142-0.145c-1.168,0-1.869,0.937-1.869,2.161v6.288h-5.32V52.126z"/>
</g>
</svg>
