<?xml version="1.0" encoding="utf-8"?>
<!-- Generator: Adobe Illustrator 16.0.0, SVG Export Plug-In . SVG Version: 6.00 Build 0)  -->
<!DOCTYPE svg PUBLIC "-//W3C//DTD SVG 1.1//EN" "http://www.w3.org/Graphics/SVG/1.1/DTD/svg11.dtd">
<svg version="1.1" id="Layer_1" xmlns="http://www.w3.org/2000/svg" xmlns:xlink="http://www.w3.org/1999/xlink" x="0px" y="0px"
	 width="100.462px" height="48px" viewBox="0 0 100.462 48" enable-background="new 0 0 100.462 48" xml:space="preserve">
<g>
	<path fill="#808080" d="M5.294,46.604c-0.346,0-0.72-0.046-1.124-0.138c-0.403-0.093-0.783-0.242-1.141-0.45
		c-0.357-0.207-0.657-0.466-0.899-0.777c-0.242-0.312-0.363-0.686-0.363-1.123c0-0.646,0.029-1.285,0.086-1.919
		s0.121-1.262,0.19-1.884v0.034l0.208-2.315c0.069-0.83,0.127-1.74,0.173-2.731c0.046-0.99,0.086-1.999,0.121-3.024
		s0.063-2.034,0.086-3.024c0.023-0.991,0.035-1.901,0.035-2.731c0-0.483-0.006-0.974-0.018-1.469
		c-0.011-0.495-0.017-0.997-0.017-1.504C2.61,23.11,2.598,22.62,2.598,22.079c0-0.542,0-1.043,0-1.504
		c0-0.483,0.063-0.882,0.19-1.192c0.127-0.312,0.49-0.467,1.089-0.467c0.53,0,1.089,0.139,1.677,0.415
		c0.587,0.276,0.997,0.668,1.227,1.175H6.746c0.115,0.254,0.202,0.663,0.259,1.228s0.098,1.065,0.121,1.504
		c0.392-0.6,0.835-1.233,1.331-1.901c0.495-0.669,1.031-1.285,1.607-1.85s1.187-1.031,1.832-1.4
		c0.645-0.369,1.336-0.553,2.074-0.553c0.968,0,1.706,0.242,2.212,0.726c0.507,0.484,0.876,1.088,1.106,1.815
		c0.23,0.726,0.357,1.498,0.38,2.315c0.023,0.818,0.035,1.562,0.035,2.23v0.276c0,0.276-0.006,0.547-0.017,0.813
		c-0.012,0.265-0.058,0.507-0.138,0.726c-0.081,0.219-0.219,0.397-0.415,0.536c-0.196,0.138-0.467,0.207-0.813,0.207
		c-0.369,0-0.76-0.052-1.175-0.155c-0.415-0.104-0.801-0.26-1.158-0.467c-0.357-0.208-0.663-0.467-0.916-0.778
		c-0.253-0.311-0.392-0.674-0.415-1.089c0-0.184,0-0.368,0-0.553s0.012-0.369,0.035-0.553c0-0.115,0.006-0.26,0.017-0.433
		c0.012-0.173,0.018-0.34,0.018-0.501c-0.737,0.737-1.389,1.647-1.953,2.73s-1.072,2.235-1.521,3.457s-0.835,2.448-1.158,3.682
		c-0.322,1.232-0.599,2.345-0.83,3.336v0.104c-0.069,0.714-0.115,1.417-0.138,2.108s-0.046,1.406-0.069,2.144
		c-0.023,0.829-0.052,1.671-0.086,2.523c-0.035,0.853-0.098,1.682-0.19,2.488C6.735,45.66,6.602,46,6.383,46.242
		C6.165,46.483,5.801,46.604,5.294,46.604z"/>
	<path fill="#808080" d="M30.805,20.714c0,0.276-0.098,0.507-0.293,0.691c-0.196,0.184-0.432,0.34-0.709,0.466
		c-0.276,0.127-0.559,0.214-0.847,0.26S28.432,22.2,28.248,22.2c-0.277,0-0.542-0.029-0.795-0.087s-0.507-0.121-0.76-0.189
		c-0.253-0.069-0.496-0.133-0.726-0.19s-0.472-0.087-0.726-0.087c-0.346,0-0.691,0.058-1.037,0.173s-0.657,0.277-0.934,0.484
		s-0.501,0.461-0.674,0.761c-0.173,0.299-0.259,0.634-0.259,1.002c0,0.554,0.115,1.101,0.346,1.643
		c0.23,0.541,0.536,1.089,0.916,1.642c0.38,0.553,0.818,1.112,1.313,1.677s1.02,1.135,1.573,1.711
		c0.668,0.737,1.342,1.486,2.022,2.247c0.68,0.76,1.291,1.556,1.833,2.385c0.542,0.83,0.985,1.705,1.331,2.627
		s0.519,1.89,0.519,2.904c0,0.875-0.144,1.659-0.432,2.351s-0.691,1.278-1.21,1.763c-0.519,0.483-1.141,0.858-1.867,1.123
		c-0.726,0.266-1.515,0.397-2.368,0.397c-0.23,0-0.582-0.046-1.054-0.138c-0.473-0.093-1.008-0.225-1.607-0.397
		s-1.216-0.363-1.85-0.57c-0.634-0.208-1.209-0.433-1.728-0.675c-0.519-0.241-0.945-0.483-1.279-0.726
		c-0.334-0.242-0.501-0.467-0.501-0.674c0-0.276,0.126-0.559,0.38-0.847c0.254-0.288,0.553-0.554,0.899-0.796
		c0.346-0.241,0.708-0.443,1.089-0.604s0.697-0.242,0.951-0.242c0.346,0,0.708,0.081,1.089,0.242s0.766,0.346,1.158,0.553
		c0.438,0.23,0.881,0.438,1.331,0.623c0.45,0.184,0.916,0.276,1.4,0.276c0.369,0,0.582-0.127,0.64-0.381
		c0.058-0.253,0.086-0.541,0.086-0.864c0-0.807-0.138-1.572-0.415-2.299c-0.277-0.726-0.634-1.434-1.072-2.125
		s-0.945-1.366-1.521-2.022c-0.576-0.657-1.152-1.308-1.729-1.953c-0.599-0.646-1.181-1.291-1.746-1.936
		c-0.564-0.646-1.066-1.309-1.503-1.988c-0.438-0.68-0.79-1.377-1.055-2.091c-0.265-0.715-0.397-1.476-0.397-2.281
		c0-0.991,0.219-1.885,0.657-2.68c0.438-0.795,1.008-1.48,1.711-2.057c0.703-0.576,1.498-1.02,2.385-1.331s1.78-0.467,2.679-0.467
		c0.3,0,0.76,0.063,1.383,0.19c0.622,0.127,1.233,0.306,1.832,0.536s1.129,0.507,1.59,0.829
		C30.575,19.965,30.805,20.322,30.805,20.714z"/>
	<path fill="#808080" d="M49.783,26.521c0,0.945-0.046,1.988-0.138,3.129s-0.23,2.321-0.415,3.543
		c-0.185,1.222-0.432,2.448-0.743,3.682c-0.312,1.232-0.686,2.414-1.124,3.543s-0.951,2.172-1.539,3.129
		c-0.587,0.956-1.25,1.757-1.987,2.402c-0.53,0.461-1.124,0.835-1.78,1.123s-1.331,0.433-2.022,0.433
		c-0.253,0-0.519-0.041-0.795-0.121c-0.276-0.081-0.484-0.271-0.622-0.57c-0.507-0.047-1.008-0.145-1.504-0.294
		c-0.495-0.15-0.904-0.479-1.227-0.985c-0.069-0.161-0.127-0.357-0.173-0.588s-0.092-0.473-0.138-0.726
		c-0.023-0.115-0.046-0.225-0.069-0.329c-0.023-0.104-0.046-0.201-0.069-0.293c-0.668-4.148-1.124-8.297-1.366-12.444
		c-0.242-4.148-0.363-8.331-0.363-12.548c0-0.369,0-1.014,0-1.936c0-0.921,0.006-1.97,0.017-3.146
		c0.012-1.175,0.023-2.408,0.035-3.699c0.012-1.291,0.029-2.5,0.052-3.629c0.023-1.129,0.058-2.103,0.104-2.921
		c0.046-0.818,0.092-1.343,0.138-1.573c0.092-0.322,0.219-0.587,0.38-0.795c0.161-0.208,0.438-0.311,0.83-0.311
		c1.083,0,1.861,0.34,2.333,1.02c0.473,0.68,0.709,1.516,0.709,2.506v8.884c0,1.083,0,2.057,0,2.921s0.005,1.706,0.017,2.523
		c0.012,0.818,0.029,1.659,0.052,2.523s0.058,1.826,0.104,2.887c0.276-0.622,0.616-1.233,1.02-1.832
		c0.403-0.6,0.858-1.141,1.365-1.625c0.507-0.483,1.072-0.876,1.694-1.175c0.623-0.3,1.314-0.45,2.074-0.45
		c1.106,0,1.999,0.242,2.679,0.726c0.68,0.483,1.198,1.101,1.555,1.85c0.357,0.748,0.599,1.584,0.726,2.506
		S49.783,25.668,49.783,26.521z M45.013,25.726c0-0.461-0.018-0.968-0.052-1.521c-0.035-0.554-0.179-1.037-0.432-1.452
		c-0.208,0.161-0.386,0.334-0.536,0.519c-0.149,0.185-0.305,0.392-0.466,0.622l-0.069,0.104v-0.034
		c-0.645,1.061-1.169,2.293-1.573,3.699c-0.403,1.405-0.726,2.863-0.968,4.372c-0.242,1.51-0.409,3.008-0.501,4.494
		s-0.138,2.829-0.138,4.027c0,0.253,0.006,0.628,0.017,1.123c0.012,0.495,0.052,0.904,0.121,1.228
		c0.899-0.761,1.642-1.873,2.229-3.336c0.588-1.464,1.06-3.042,1.417-4.736c0.357-1.693,0.605-3.358,0.743-4.994
		C44.943,28.203,45.013,26.832,45.013,25.726z"/>
	<path fill="#808080" d="M65.649,39.726c0,0.691-0.19,1.406-0.57,2.144s-0.87,1.411-1.469,2.021c-0.6,0.611-1.285,1.112-2.058,1.504
		c-0.771,0.392-1.538,0.588-2.298,0.588c-1.083,0-2.017-0.213-2.8-0.64c-0.784-0.426-1.463-1.002-2.04-1.729
		c-0.576-0.726-1.043-1.55-1.4-2.472c-0.357-0.922-0.64-1.872-0.847-2.852s-0.352-1.959-0.432-2.938s-0.121-1.872-0.121-2.679
		c0-0.691,0.04-1.51,0.121-2.454c0.081-0.945,0.219-1.925,0.415-2.938s0.467-2.017,0.813-3.007c0.345-0.991,0.777-1.879,1.296-2.662
		s1.141-1.417,1.867-1.901c0.726-0.483,1.562-0.726,2.506-0.726c0.737,0,1.4,0.149,1.987,0.449s1.083,0.697,1.487,1.192
		c0.403,0.496,0.714,1.066,0.934,1.711c0.219,0.646,0.328,1.313,0.328,2.005c0,0.899-0.208,1.879-0.622,2.938
		c-0.415,1.061-0.951,2.086-1.607,3.076c-0.657,0.991-1.395,1.885-2.212,2.68c-0.818,0.795-1.631,1.399-2.437,1.814
		c0.046,0.415,0.138,1.02,0.276,1.814c0.138,0.796,0.328,1.585,0.57,2.368c0.242,0.784,0.53,1.464,0.864,2.04
		s0.731,0.864,1.192,0.864c0.23,0,0.432-0.069,0.605-0.208c0.173-0.138,0.329-0.322,0.467-0.553s0.259-0.484,0.363-0.761
		c0.104-0.276,0.202-0.541,0.294-0.795l0.207-0.484c0.047-0.068,0.075-0.115,0.087-0.138c0.012-0.023,0.028-0.058,0.052-0.104
		c0.161-0.3,0.316-0.576,0.467-0.83c0.149-0.254,0.363-0.473,0.64-0.656h-0.035c0.093-0.093,0.19-0.145,0.294-0.156
		s0.202-0.017,0.294-0.017c0.254,0,0.53,0.08,0.83,0.241c0.299,0.162,0.576,0.363,0.829,0.605c0.254,0.242,0.461,0.507,0.622,0.795
		S65.649,39.449,65.649,39.726z M58.805,24.481c0-0.23-0.012-0.473-0.035-0.726c-0.023-0.254-0.081-0.473-0.173-0.657
		c-0.323,0.392-0.605,0.858-0.847,1.4c-0.242,0.541-0.444,1.105-0.605,1.693c-0.162,0.588-0.294,1.182-0.398,1.78
		c-0.104,0.6-0.178,1.152-0.225,1.659c0.599-0.714,1.129-1.526,1.59-2.437S58.805,25.38,58.805,24.481z"/>
	<path fill="#808080" d="M81.931,45.603c0,0.461-0.115,0.777-0.346,0.95s-0.553,0.26-0.968,0.26c-1.083,0-1.861-0.288-2.333-0.864
		c-0.473-0.576-0.824-1.337-1.055-2.282c-0.069-0.322-0.138-0.65-0.207-0.984c-0.069-0.335-0.127-0.663-0.173-0.985
		c-0.046-0.3-0.093-0.507-0.139-0.622s-0.092-0.335-0.138-0.657c-0.277,0.668-0.617,1.365-1.021,2.092
		c-0.403,0.726-0.87,1.394-1.399,2.005c-0.53,0.61-1.124,1.111-1.78,1.503c-0.657,0.393-1.377,0.588-2.161,0.588
		c-0.829,0-1.521-0.201-2.073-0.604c-0.554-0.403-0.985-0.91-1.297-1.521c-0.311-0.61-0.53-1.284-0.656-2.021
		c-0.127-0.738-0.19-1.44-0.19-2.109c0-1.566,0.155-3.267,0.467-5.099c0.311-1.832,0.743-3.664,1.296-5.496
		c0.554-1.832,1.198-3.595,1.936-5.289c0.738-1.693,1.545-3.174,2.42-4.441v0.034l0.208-0.311c0.253-0.346,0.547-0.721,0.881-1.124
		s0.732-0.605,1.193-0.605c0.438,0,0.817,0.19,1.141,0.57c0.322,0.38,0.553,0.778,0.691,1.193c0.599,0.115,1.083,0.259,1.451,0.432
		c0.369,0.173,0.657,0.387,0.864,0.64c0.208,0.254,0.346,0.548,0.415,0.882s0.104,0.697,0.104,1.089c0,0.161,0,0.334,0,0.519
		s-0.012,0.368-0.034,0.553c-0.023,0.185-0.035,0.403-0.035,0.657c0,0.253,0,0.483,0,0.691c0,0.23,0.041,0.529,0.121,0.898
		c0.081,0.369,0.167,0.749,0.26,1.141l0.241,1.279c0.115,0.668,0.214,1.429,0.294,2.281c0.081,0.853,0.179,1.705,0.294,2.558
		c0.093,0.876,0.185,1.723,0.276,2.541c0.093,0.818,0.185,1.573,0.277,2.265l0.829,5.115l0.104,0.588
		c0.047,0.3,0.099,0.576,0.156,0.83C81.902,44.991,81.931,45.279,81.931,45.603z M74.015,25.726c0-0.046-0.012-0.121-0.034-0.225
		c-0.023-0.104-0.046-0.213-0.069-0.328c-0.53,1.129-0.997,2.356-1.4,3.682s-0.737,2.673-1.002,4.044
		c-0.266,1.371-0.461,2.742-0.588,4.113c-0.127,1.372-0.19,2.668-0.19,3.89c0,0.115,0,0.219,0,0.311
		c0,0.093,0.012,0.185,0.035,0.276v0.035c0.553-0.853,1.031-1.977,1.435-3.37c0.403-1.395,0.743-2.858,1.02-4.391
		s0.479-3.019,0.604-4.459C73.951,27.863,74.015,26.671,74.015,25.726z"/>
	<path fill="#808080" d="M87.357,46.604c-0.346,0-0.72-0.046-1.123-0.138c-0.403-0.093-0.783-0.242-1.141-0.45
		c-0.357-0.207-0.657-0.466-0.898-0.777c-0.242-0.312-0.363-0.686-0.363-1.123c0-0.646,0.028-1.285,0.086-1.919
		s0.121-1.262,0.19-1.884v0.034l0.208-2.315c0.068-0.83,0.126-1.74,0.172-2.731c0.047-0.99,0.087-1.999,0.121-3.024
		c0.035-1.025,0.063-2.034,0.087-3.024c0.022-0.991,0.034-1.901,0.034-2.731c0-0.483-0.006-0.974-0.017-1.469
		c-0.012-0.495-0.018-0.997-0.018-1.504c-0.023-0.438-0.035-0.928-0.035-1.469c0-0.542,0-1.043,0-1.504
		c0-0.483,0.063-0.882,0.19-1.192c0.127-0.312,0.49-0.467,1.089-0.467c0.53,0,1.089,0.139,1.677,0.415s0.997,0.668,1.228,1.175
		H88.81c0.115,0.254,0.202,0.663,0.26,1.228s0.098,1.065,0.121,1.504c0.392-0.6,0.835-1.233,1.33-1.901
		c0.496-0.669,1.031-1.285,1.607-1.85s1.188-1.031,1.832-1.4c0.646-0.369,1.337-0.553,2.074-0.553c0.968,0,1.705,0.242,2.213,0.726
		c0.507,0.484,0.875,1.088,1.105,1.815c0.23,0.726,0.357,1.498,0.381,2.315c0.022,0.818,0.034,1.562,0.034,2.23v0.276
		c0,0.276-0.006,0.547-0.018,0.813c-0.011,0.265-0.058,0.507-0.138,0.726c-0.081,0.219-0.219,0.397-0.415,0.536
		c-0.196,0.138-0.467,0.207-0.813,0.207c-0.368,0-0.761-0.052-1.175-0.155c-0.415-0.104-0.801-0.26-1.158-0.467
		c-0.357-0.208-0.663-0.467-0.916-0.778c-0.254-0.311-0.392-0.674-0.415-1.089c0-0.184,0-0.368,0-0.553s0.012-0.369,0.034-0.553
		c0-0.115,0.006-0.26,0.018-0.433s0.018-0.34,0.018-0.501c-0.737,0.737-1.389,1.647-1.953,2.73s-1.071,2.235-1.521,3.457
		c-0.449,1.222-0.835,2.448-1.157,3.682c-0.323,1.232-0.6,2.345-0.83,3.336v0.104c-0.069,0.714-0.115,1.417-0.138,2.108
		c-0.023,0.691-0.047,1.406-0.069,2.144c-0.023,0.829-0.052,1.671-0.087,2.523c-0.034,0.853-0.098,1.682-0.189,2.488
		c-0.047,0.438-0.179,0.778-0.398,1.021C88.228,46.483,87.865,46.604,87.357,46.604z"/>
</g>
</svg>
