<?xml version="1.0" encoding="utf-8"?>
<!-- Generator: Adobe Illustrator 16.0.0, SVG Export Plug-In . SVG Version: 6.00 Build 0)  -->
<!DOCTYPE svg PUBLIC "-//W3C//DTD SVG 1.1//EN" "http://www.w3.org/Graphics/SVG/1.1/DTD/svg11.dtd">
<svg version="1.1" id="Layer_1" xmlns="http://www.w3.org/2000/svg" xmlns:xlink="http://www.w3.org/1999/xlink" x="0px" y="0px"
	 width="126px" height="53px" viewBox="0 0 126 53" enable-background="new 0 0 126 53" xml:space="preserve">
<g>
	<path fill="#9AA2AE" d="M23.333,51.399c-0.216,0.504-0.648,0.504-0.864,0L1.947,1.858H15.7l9.145,22.97L35.357,0.922
		c0.145-0.36,0.433-0.36,0.576,0L46.95,24.829l8.713-22.97h13.105L48.535,51.399c-0.217,0.576-0.576,0.576-0.864,0L35.43,25.117
		L23.333,51.399z"/>
</g>
<path fill="none" stroke="#9AA2AE" stroke-width="9" stroke-miterlimit="2" d="M70,11.75c0,0,5.25-5.75,12.75-5.75
	s15.75,8.5,24.75,8.5s12.5-7,12.5-7"/>
<path fill="none" stroke="#9AA2AE" stroke-width="9" stroke-miterlimit="10" d="M71,43.75c0,0,5.25-5.75,12.75-5.75
	s15.75,8.5,24.75,8.5s12.5-7,12.5-7"/>
<path fill="none" stroke="#9AA2AE" stroke-width="9" stroke-miterlimit="10" d="M70,27.75c0,0,5.25-5.75,12.75-5.75
	s15.75,8.5,24.75,8.5s12.5-7,12.5-7"/>
</svg>
